<?xml version="1.0" standalone="no"?>
<!DOCTYPE svg PUBLIC "-//W3C//DTD SVG 20010904//EN"
 "http://www.w3.org/TR/2001/REC-SVG-20010904/DTD/svg10.dtd">
<svg version="1.0" xmlns="http://www.w3.org/2000/svg"
 width="2560.000000pt" height="1440.000000pt" viewBox="0 0 2560.000000 1440.000000"
 preserveAspectRatio="xMidYMid meet">
<metadata>
Created by potrace 1.15, written by Peter Selinger 2001-2017
</metadata>
<g transform="translate(0.000000,1440.000000) scale(0.100000,-0.100000)"
fill="#000000" stroke="none">
<path d="M0 7200 l0 -7200 12800 0 12800 0 0 7200 0 7200 -12800 0 -12800 0 0
-7200z m18555 6475 c225 -31 393 -61 625 -110 136 -29 411 -130 568 -209 144
-72 321 -174 401 -230 42 -29 96 -64 121 -76 108 -55 245 -161 383 -297 90
-89 109 -113 90 -113 -5 0 -42 27 -83 61 -41 33 -118 89 -170 124 -99 66 -322
185 -346 185 -25 0 -34 -46 -24 -118 5 -37 17 -200 26 -362 15 -257 15 -332 5
-580 -7 -157 -19 -319 -27 -360 -7 -41 -20 -115 -29 -165 -21 -125 -57 -275
-66 -275 -4 0 -14 42 -23 93 -44 244 -89 443 -117 519 -33 88 -36 115 -30 328
4 130 -13 512 -23 528 -4 7 -12 12 -18 12 -8 0 -9 -64 -3 -217 4 -120 7 -238
7 -263 0 -78 -21 -312 -37 -395 -8 -44 -28 -170 -45 -280 -41 -260 -57 -344
-85 -435 -28 -90 -65 -240 -65 -266 0 -11 -16 -64 -35 -119 -20 -55 -51 -146
-71 -202 -20 -57 -40 -103 -45 -103 -5 0 -9 6 -9 13 0 6 -7 71 -15 142 -18
166 -42 277 -104 500 -70 251 -114 375 -132 375 -29 0 -64 -122 -98 -335 -20
-123 -30 -221 -66 -605 -8 -91 -24 -221 -34 -290 -22 -148 -26 -145 -66 55
-15 72 -49 227 -76 346 -27 119 -58 272 -69 340 -44 263 -49 296 -56 357 -12
107 -26 85 -78 -118 -35 -139 -56 -252 -76 -425 -18 -151 -13 -146 -82 -79
-88 88 -97 106 -109 230 -16 167 7 845 31 934 27 95 72 216 109 287 36 72 36
73 17 73 -8 0 -21 -11 -28 -24 -7 -13 -34 -57 -59 -98 -126 -200 -256 -452
-294 -568 -10 -30 -27 -73 -38 -95 -11 -22 -35 -85 -53 -140 -18 -55 -37 -101
-43 -103 -6 -2 -36 22 -66 53 -44 44 -55 63 -55 88 0 116 125 618 195 780 5
12 3 17 -10 17 -30 0 -109 -219 -145 -403 -6 -32 -41 -117 -77 -190 -103 -209
-189 -416 -264 -637 -38 -113 -74 -209 -78 -213 -5 -5 -58 -21 -117 -37 -60
-15 -133 -35 -163 -44 -29 -8 -58 -13 -64 -9 -13 8 -1 397 19 597 34 338 89
639 154 843 45 143 50 170 20 135 -25 -30 -104 -279 -130 -411 -24 -117 -34
-148 -60 -176 -29 -31 -110 -196 -116 -236 -6 -37 -20 -67 -27 -59 -7 9 22
485 32 525 14 55 13 85 -3 85 -16 0 -110 -220 -161 -380 -21 -63 -45 -135 -55
-160 -31 -78 -91 -290 -127 -450 -42 -189 -87 -456 -129 -770 -19 -139 -15
-378 9 -555 9 -66 21 -158 27 -205 23 -186 108 -560 155 -685 30 -80 56 -165
50 -165 -10 0 -168 246 -247 385 -129 225 -230 435 -281 580 -25 72 -60 166
-76 210 -17 44 -36 100 -43 125 -16 54 -29 57 -40 10 -86 -398 -113 -614 -134
-1085 -17 -365 -14 -524 14 -758 10 -82 15 -150 11 -152 -7 -5 -91 249 -119
365 -70 279 -135 895 -105 991 6 19 -9 27 -19 10 -10 -16 -36 -163 -51 -292
-8 -68 -18 -248 -21 -399 -8 -369 11 -635 60 -830 19 -74 39 -148 45 -164 7
-16 9 -31 7 -34 -16 -15 -224 383 -272 521 -32 88 -43 199 -51 502 -8 309 -25
282 -27 -45 -1 -173 5 -282 31 -555 44 -462 80 -685 138 -858 47 -137 27 -138
-56 -1 -28 47 -62 112 -76 147 -14 34 -35 82 -48 107 -53 105 -155 482 -174
645 -36 308 -35 590 4 1015 8 85 19 202 24 260 6 58 22 182 36 275 14 94 33
216 41 272 8 56 24 141 35 190 11 48 31 149 44 223 41 228 93 437 156 620 33
96 73 218 89 271 16 52 34 109 41 125 22 55 179 507 221 634 44 135 179 464
243 589 19 39 31 71 27 71 -28 0 -213 -400 -298 -643 -25 -73 -60 -166 -76
-207 -34 -83 -48 -124 -172 -485 -48 -141 -93 -255 -103 -262 -9 -7 -29 -13
-44 -13 -71 0 -318 -112 -438 -199 -46 -34 -88 -61 -93 -61 -10 0 0 19 55 109
68 113 97 199 108 324 5 62 6 153 3 202 l-6 90 41 63 c23 35 72 96 109 135 75
80 117 135 109 144 -15 15 -137 -109 -218 -222 -28 -38 -49 -56 -49 -41 0 2
-9 80 -20 173 -10 92 -24 217 -30 278 -11 104 -22 141 -41 130 -4 -3 -34 -49
-65 -103 -59 -100 -144 -221 -156 -222 -10 0 30 135 64 217 23 57 40 81 79
114 53 44 82 91 105 171 11 36 22 52 46 64 16 9 34 12 38 7 4 -4 34 -44 67
-88 73 -97 213 -233 268 -260 27 -13 60 -20 101 -20 57 0 65 3 118 44 31 24
84 76 119 115 34 39 93 105 130 146 38 41 77 92 88 113 34 66 51 222 46 412
-6 184 -24 275 -74 367 -14 25 -22 51 -19 56 27 43 572 331 799 421 235 94
480 142 907 180 164 14 693 12 805 -4z m-3400 -427 c50 -22 141 -65 204 -95
128 -61 228 -99 315 -120 52 -12 73 -11 176 4 114 16 118 16 151 -3 43 -26 63
-61 88 -159 33 -128 41 -228 27 -327 -7 -48 -15 -91 -19 -95 -14 -14 -266 16
-355 43 -110 32 -214 70 -274 100 l-46 23 5 120 c4 81 2 135 -7 168 -33 127
-52 183 -60 183 -13 0 -13 1 15 -84 20 -58 25 -94 24 -163 -1 -107 -10 -175
-25 -180 -6 -2 -56 27 -110 64 -165 112 -237 127 -350 68 -37 -19 -70 -35 -74
-35 -4 0 -21 39 -39 88 -30 83 -72 154 -85 141 -4 -3 5 -29 19 -57 34 -69 60
-171 51 -205 -10 -41 -157 -110 -291 -137 -55 -11 -121 -32 -147 -45 -26 -14
-51 -25 -56 -25 -5 0 -26 25 -46 55 -44 63 -62 80 -70 66 -3 -5 15 -40 40 -78
37 -55 44 -74 40 -98 -3 -16 -11 -63 -18 -103 -6 -41 -16 -71 -21 -69 -22 7
-157 396 -157 452 0 41 36 71 117 100 190 67 255 106 549 326 102 77 157 105
235 118 69 12 85 8 194 -41z m3191 -1680 c-14 -166 -25 -555 -19 -649 4 -73 3
-98 -7 -104 -16 -10 -200 177 -200 203 0 14 123 383 192 575 30 82 42 73 34
-25z m-480 -210 c-27 -166 -47 -344 -56 -503 -6 -104 -13 -199 -15 -211 -4
-19 -14 -22 -106 -28 -56 -4 -106 -3 -110 1 -32 32 239 773 283 773 5 0 7 -15
4 -32z m134 -312 c0 -14 -9 -72 -20 -128 -11 -57 -20 -141 -20 -188 0 -47 -4
-91 -9 -98 -6 -10 -22 -11 -59 -6 -48 6 -52 9 -58 39 -9 52 19 389 42 505 5
23 8 22 65 -37 41 -42 59 -69 59 -87z m730 -146 c12 -80 41 -233 66 -340 24
-107 53 -238 65 -290 44 -199 112 -480 145 -604 36 -132 57 -186 74 -186 10 0
30 61 55 171 13 61 44 311 61 492 6 78 19 107 28 65 9 -40 55 -328 76 -473 11
-77 25 -210 30 -295 10 -155 17 -217 27 -233 6 -11 152 205 195 288 17 32 57
122 89 198 33 77 77 179 99 226 67 148 187 472 221 601 l13 45 8 -60 c4 -33 6
-65 4 -71 -3 -6 -1 -85 4 -175 5 -90 6 -198 2 -239 l-7 -75 -60 -7 c-71 -9
-85 -14 -85 -28 0 -6 29 -10 70 -10 86 0 96 -20 21 -45 -27 -9 -52 -23 -55
-32 -7 -16 5 -16 77 2 23 6 25 3 31 -32 3 -21 2 -55 -2 -76 -6 -35 -13 -42
-77 -75 -64 -34 -70 -40 -78 -77 -4 -22 -12 -44 -17 -49 -13 -13 -13 -56 1
-56 6 0 20 5 31 11 25 13 21 7 -33 -66 -32 -43 -41 -66 -60 -167 -22 -115 -23
-120 -6 -203 9 -47 25 -101 37 -119 34 -57 114 -104 204 -121 98 -19 136 -19
136 -1 0 7 26 67 58 132 95 194 129 320 119 453 -2 43 -12 92 -21 108 -17 34
-66 78 -96 88 -32 10 -23 25 15 25 63 0 134 -21 172 -51 44 -35 108 -119 128
-166 28 -66 56 -226 50 -275 -4 -27 -4 -48 0 -48 4 0 25 16 46 35 22 19 46 35
54 35 22 0 29 -44 11 -78 -22 -42 -103 -233 -133 -312 -49 -128 -74 -249 -114
-540 -22 -162 -51 -340 -65 -395 -93 -373 -254 -639 -506 -839 -157 -125 -235
-175 -439 -284 -189 -101 -249 -136 -529 -307 -297 -181 -272 -173 -403 -124
-45 17 -107 40 -137 51 -100 38 -483 230 -590 296 -234 146 -358 227 -415 271
-33 26 -92 67 -130 92 -166 105 -410 300 -492 393 -50 57 -57 79 -72 216 -7
58 -16 141 -22 185 -15 116 -26 580 -20 794 l6 183 80 -116 c44 -64 99 -143
122 -177 50 -73 93 -120 104 -113 4 2 -12 62 -37 132 -65 183 -112 340 -140
472 -13 63 -31 142 -38 175 -20 86 -77 566 -76 645 0 55 112 368 223 627 75
172 270 545 278 531 5 -7 9 -104 9 -214 l0 -202 -27 -7 c-16 -3 -56 -20 -91
-37 -52 -24 -63 -33 -60 -51 2 -13 11 -23 23 -25 61 -9 61 -10 94 -99 29 -81
47 -120 112 -243 29 -55 36 -37 20 54 -28 161 -10 200 111 244 66 23 218 62
246 62 3 0 -35 -24 -84 -53 -134 -80 -187 -168 -216 -358 -11 -75 -11 -76 27
-183 57 -161 162 -307 242 -339 21 -8 93 -18 163 -22 69 -3 142 -10 162 -15
45 -9 54 -3 31 23 -17 18 -17 20 6 36 111 76 143 148 149 348 4 129 2 150 -22
245 -16 60 -45 136 -69 183 -41 76 -46 82 -107 112 -35 18 -75 34 -89 36 l-26
3 30 13 c31 13 112 11 245 -8 58 -8 78 -17 175 -82 60 -40 140 -103 179 -139
75 -70 202 -224 232 -280 l19 -35 5 73 c4 55 9 76 22 83 15 8 12 17 -23 77
l-40 67 3 130 c2 72 7 135 11 142 5 9 32 -8 88 -55 90 -75 99 -80 99 -58 0 9
-41 55 -91 104 l-91 88 22 169 c12 94 27 206 35 250 7 44 16 102 20 129 4 27
11 61 17 75 10 24 12 21 24 -39 7 -36 22 -130 34 -210z m3264 110 c19 -10 38
-34 55 -70 15 -30 44 -85 65 -122 20 -37 38 -80 38 -96 1 -31 -29 -129 -41
-137 -5 -2 -31 7 -58 21 -48 23 -99 80 -103 114 -6 42 1 311 8 308 4 -2 20
-10 36 -18z m339 -62 c14 -18 36 -56 51 -85 14 -28 44 -72 67 -99 28 -33 39
-53 36 -68 -14 -55 -53 -182 -60 -193 -5 -8 -28 -2 -83 23 -41 19 -97 38 -124
41 -28 3 -50 10 -50 15 0 6 7 38 16 71 19 76 14 99 -56 220 -27 48 -50 90 -50
93 0 3 17 3 38 0 20 -4 57 -2 82 3 86 17 107 14 133 -21z m-4000 -225 c5 -8
22 -91 38 -185 16 -93 32 -174 35 -179 14 -24 -14 -5 -51 34 -77 81 -197 166
-263 188 -35 12 -66 27 -68 34 -7 18 34 211 72 344 4 12 215 -198 237 -236z
m2067 -364 c0 -265 -3 -339 -13 -347 -13 -11 -169 -42 -209 -42 -26 0 -22 16
41 185 51 136 75 215 117 380 47 189 47 187 55 173 5 -7 9 -164 9 -349z m2279
137 c20 -48 8 -123 -39 -228 -58 -132 -90 -160 -90 -80 0 44 -20 114 -50 172
-28 55 -29 102 -5 227 l20 101 75 -80 c41 -44 81 -94 89 -112z m-8575 127
c210 -73 413 -217 539 -384 22 -29 37 -79 24 -79 -2 0 -43 9 -92 19 -50 11
-117 22 -150 26 -33 4 -100 14 -150 22 -156 26 -186 30 -190 23 -5 -8 59 -70
98 -93 15 -10 27 -22 27 -27 0 -13 -597 -13 -690 0 -38 6 -102 15 -142 20 -40
6 -74 13 -77 16 -12 11 11 26 229 149 81 46 276 126 379 156 71 21 111 43 111
63 0 7 -18 41 -40 75 l-41 63 33 -7 c18 -4 77 -23 132 -42z m4421 -128 c7 -24
-11 -234 -20 -243 -24 -24 -74 130 -90 278 -3 30 -8 69 -11 85 -5 28 -1 25 55
-35 33 -36 63 -74 66 -85z m-10445 -246 c58 -7 109 -15 113 -19 4 -4 -10 -19
-32 -33 -22 -15 -45 -36 -51 -47 -9 -17 -7 -22 15 -30 15 -6 29 -10 32 -10 12
0 43 -33 43 -46 0 -8 -16 -14 -42 -16 -35 -2 -45 -8 -55 -29 -7 -14 -24 -31
-38 -39 -14 -7 -25 -22 -25 -32 0 -16 9 -18 74 -18 76 0 102 -13 131 -64 10
-17 12 -17 40 -1 25 15 37 15 71 6 45 -12 105 -49 111 -68 2 -6 -6 -17 -18
-24 -17 -9 -24 -9 -27 0 -5 15 -33 14 -58 -3 -23 -16 -70 -9 -144 20 -38 15
-42 15 -59 0 -16 -15 -25 -16 -58 -7 -51 15 -50 15 -66 -16 -11 -21 -22 -27
-48 -27 -31 -1 -34 -4 -31 -28 1 -14 -2 -29 -7 -32 -17 -11 -41 6 -41 27 0 19
-2 19 -29 -7 -16 -15 -37 -26 -48 -24 -27 5 -93 134 -90 178 2 33 0 35 -28 35
-26 0 -30 -4 -33 -31 -4 -36 -38 -60 -72 -51 -12 3 -31 1 -41 -6 -16 -10 -17
-13 -3 -28 13 -14 13 -18 0 -28 -21 -18 -37 -4 -34 27 2 21 -2 28 -20 30 -16
3 -27 -5 -40 -27 -18 -33 -39 -43 -27 -13 15 34 17 78 3 89 -7 6 -27 14 -44
17 -30 7 -32 6 -38 -33 -5 -31 -1 -50 19 -88 31 -63 46 -75 126 -107 62 -24
68 -25 95 -11 16 8 35 15 42 15 17 0 16 5 -13 62 -14 27 -25 53 -25 58 0 4 29
8 66 8 46 0 70 -5 81 -16 19 -20 52 -91 53 -114 0 -10 15 -21 43 -30 31 -9 43
-19 45 -35 3 -17 -3 -24 -23 -29 -21 -5 -55 -47 -55 -67 0 -11 97 7 113 21 21
18 22 41 3 48 -12 5 -11 12 6 40 24 41 40 43 68 7 20 -26 25 -27 100 -24 60 2
85 -1 102 -13 31 -22 50 -20 71 9 16 22 16 29 5 53 l-14 27 -118 -3 c-111 -3
-146 4 -146 28 0 12 49 30 81 30 17 0 59 8 95 17 l63 17 59 -28 c68 -33 96
-31 100 4 6 41 18 43 46 10 34 -41 33 -53 -9 -92 l-36 -33 14 -53 c8 -32 22
-58 35 -68 12 -8 22 -19 22 -25 0 -16 -28 -10 -66 16 -21 14 -42 24 -48 22
-22 -7 -15 -42 14 -65 23 -18 33 -21 47 -12 32 20 183 -79 183 -120 0 -19 -41
-22 -54 -4 -23 30 -34 7 -30 -59 l5 -62 -24 66 c-31 86 -32 87 -73 95 -44 8
-49 3 -33 -39 15 -43 5 -87 -21 -87 -10 0 -22 5 -25 10 -9 15 -51 12 -65 -5
-20 -24 -1 -37 53 -33 57 3 67 -7 39 -41 -14 -18 -31 -24 -85 -28 l-66 -6 -44
48 c-30 34 -46 45 -51 36 -5 -7 6 -25 30 -46 33 -31 35 -35 18 -40 -40 -13
-84 -35 -84 -43 0 -4 12 -15 26 -23 l27 -16 -49 -7 c-124 -17 -126 -17 -113
-32 8 -10 38 -14 110 -14 115 0 146 -13 197 -85 l31 -45 -58 6 c-51 6 -61 4
-79 -14 -12 -12 -37 -24 -57 -28 -29 -5 -41 -2 -60 16 -15 14 -25 18 -30 11
-3 -6 -27 -11 -53 -11 -59 0 -80 -11 -57 -30 22 -18 55 -84 55 -109 0 -22 27
-41 58 -41 15 0 19 5 15 19 -8 30 37 55 71 40 41 -19 34 -48 -14 -55 -45 -7
-47 -10 -24 -42 9 -13 14 -33 11 -45 -3 -12 0 -44 7 -72 12 -47 15 -50 51 -56
44 -7 74 -41 75 -81 0 -27 -2 -28 -54 -28 -49 0 -57 -3 -75 -29 -12 -16 -21
-36 -21 -44 0 -8 25 -27 56 -41 l57 -27 21 21 c30 27 60 25 80 -4 9 -14 27
-26 43 -28 41 -4 40 -31 -1 -53 -28 -15 -39 -17 -60 -7 l-25 11 19 -32 c27
-45 58 -77 86 -87 33 -13 40 -35 20 -65 -9 -13 -13 -31 -10 -39 12 -31 -25
-29 -57 3 -27 28 -31 37 -25 69 4 28 0 46 -14 70 -11 17 -24 32 -29 32 -5 0
-21 -16 -35 -35 -22 -28 -25 -39 -16 -54 16 -30 12 -39 -21 -56 -24 -13 -33
-14 -45 -4 -8 7 -43 22 -77 34 l-62 21 -1 67 -1 67 47 0 c51 0 93 21 70 35 -8
5 -46 9 -87 10 -40 0 -76 4 -79 8 -4 4 -18 0 -32 -9 -16 -10 -35 -14 -56 -10
-34 7 -84 -20 -58 -31 7 -2 36 -25 64 -49 29 -24 55 -44 59 -44 16 0 46 -63
41 -86 -4 -22 -8 -24 -38 -18 -38 7 -64 -8 -64 -36 0 -10 -6 -23 -13 -29 -11
-8 -19 -5 -37 14 -16 17 -34 25 -57 25 -39 0 -42 -12 -8 -34 14 -9 25 -22 25
-30 0 -7 -34 -35 -75 -62 -169 -111 -195 -132 -195 -163 0 -16 -7 -34 -15 -41
-8 -7 -15 -27 -15 -44 0 -17 -9 -46 -20 -63 -21 -36 -21 -36 -44 -27 -21 8
-21 34 1 34 20 0 53 28 53 47 0 18 -53 17 -90 -2 -33 -17 -34 -19 -20 -45 15
-29 -5 -34 -43 -12 -40 24 -116 35 -155 21 -28 -10 -111 -113 -100 -125 10
-10 64 18 99 52 26 26 44 35 62 32 l26 -3 -30 -60 c-26 -53 -28 -64 -18 -99 8
-30 7 -49 -5 -87 -9 -26 -16 -53 -16 -59 0 -21 24 -4 30 21 5 20 12 24 38 22
43 -2 57 -15 72 -69 7 -25 22 -49 33 -56 19 -10 19 -11 -9 -23 -46 -19 -60
-41 -44 -70 8 -15 22 -25 35 -25 13 0 39 -7 60 -15 46 -20 75 -12 75 20 0 60
27 72 60 25 12 -16 26 -30 33 -30 12 0 57 -39 57 -50 0 -3 -21 -7 -47 -9 -25
-1 -62 -9 -81 -17 -38 -16 -114 -11 -167 12 -20 8 -36 9 -48 2 -10 -5 -31 -7
-47 -3 -46 10 -47 -14 -1 -32 33 -13 40 -21 43 -46 4 -41 23 -45 36 -8 l10 29
84 -2 c79 -3 83 -4 86 -27 5 -34 18 -45 36 -30 18 15 47 7 70 -18 17 -18 15
-20 -23 -42 -23 -12 -41 -26 -41 -30 0 -5 18 -14 40 -20 28 -9 40 -18 40 -31
0 -22 27 -34 103 -43 52 -7 56 -9 46 -27 -15 -28 -37 -33 -59 -13 -23 21 -69
13 -96 -16 -26 -29 -81 -25 -116 8 -24 23 -36 27 -103 28 -92 3 -121 19 -130
72 l-6 39 -60 1 c-102 3 -88 -44 27 -97 60 -27 104 -71 104 -104 0 -9 -8 -16
-19 -16 -11 0 -22 -4 -25 -9 -6 -9 32 -44 69 -67 16 -9 14 -15 -28 -57 -25
-26 -50 -47 -56 -47 -12 0 -42 56 -60 111 -14 42 -75 117 -105 129 -13 5 -34
2 -54 -6 -31 -13 -33 -12 -45 13 -10 23 -9 28 11 41 32 21 27 47 -13 66 -30
14 -38 15 -67 3 -18 -8 -39 -21 -47 -30 -33 -40 -61 -1 -41 58 8 24 8 40 1 54
-11 20 -49 51 -63 51 -7 0 -5 -47 8 -141 3 -29 1 -49 -5 -54 -21 -13 -10 -34
21 -40 18 -4 48 -18 68 -31 19 -13 51 -27 70 -30 19 -4 47 -13 62 -21 23 -11
27 -18 21 -43 -5 -29 -4 -30 28 -30 32 0 69 -15 59 -22 -3 -2 -16 -9 -30 -16
-14 -6 -32 -17 -41 -24 -14 -9 -25 -6 -60 20 -42 31 -98 47 -71 20 7 -7 12
-20 12 -31 0 -14 -5 -17 -21 -12 -12 4 -42 1 -67 -6 -44 -12 -46 -12 -69 15
-27 31 -30 58 -8 76 17 14 20 56 5 65 -6 4 -31 -3 -56 -15 -26 -13 -54 -20
-67 -16 -12 3 -29 1 -37 -4 -12 -8 -13 -14 -2 -42 10 -27 9 -34 -3 -40 -8 -5
-12 -15 -9 -23 9 -23 132 -105 137 -92 7 21 56 -10 63 -40 4 -15 13 -37 20
-48 21 -29 17 -37 -13 -31 -16 3 -35 2 -42 -3 -20 -13 -87 40 -96 76 -9 40
-33 73 -52 73 -12 0 -14 -7 -10 -37 4 -20 13 -41 22 -45 8 -5 15 -14 15 -19 0
-6 -16 -1 -35 11 -31 19 -40 21 -65 10 -24 -10 -33 -10 -45 0 -19 16 -19 35 1
65 19 29 12 58 -12 48 -10 -4 -24 4 -40 23 l-24 29 -19 -23 c-11 -12 -21 -27
-23 -33 -2 -5 -11 -7 -21 -3 -14 5 -17 13 -12 35 6 27 5 29 -17 21 -34 -13
-150 -2 -170 16 -16 14 -26 72 -12 72 3 0 21 -12 40 -26 31 -24 34 -25 40 -9
5 13 -5 29 -39 59 -25 22 -50 51 -57 64 -22 45 -58 13 -45 -41 7 -28 -7 -43
-23 -24 -6 6 -14 28 -19 47 -8 30 -14 36 -46 41 -21 3 -49 16 -62 29 -14 13
-27 22 -29 19 -9 -8 22 -79 48 -109 14 -17 26 -42 26 -54 0 -12 11 -37 25 -56
29 -39 33 -80 9 -80 -16 0 -81 35 -149 81 -60 40 -170 56 -188 27 -9 -14 -5
-25 21 -57 24 -30 33 -53 38 -98 4 -32 15 -74 25 -93 23 -48 99 -117 153 -140
45 -19 50 -26 62 -95 9 -55 31 -84 163 -210 356 -340 363 -349 289 -370 -20
-5 -40 -13 -44 -17 -13 -13 -51 -9 -64 7 -14 17 -91 55 -110 55 -7 0 -42 16
-79 35 -118 63 -441 401 -441 462 0 8 -10 28 -22 44 -72 93 -66 58 -60 324 3
195 7 243 19 257 18 20 14 85 -11 161 l-15 48 25 10 c21 7 33 5 59 -11 18 -11
49 -20 70 -20 25 0 50 -10 80 -31 53 -38 74 -31 46 15 -22 35 -29 122 -16 191
6 32 4 44 -10 55 -14 11 -20 11 -37 1 -17 -10 -23 -9 -40 6 -11 10 -27 31 -35
47 l-15 29 59 -5 c42 -4 64 -2 78 8 43 31 87 8 100 -53 7 -37 28 -58 50 -49
14 5 14 9 -1 37 -9 18 -29 50 -45 72 -34 47 -36 61 -9 52 13 -4 20 -2 20 7 -1
23 -29 52 -53 53 -12 1 -34 5 -49 9 -18 5 -40 2 -72 -12 l-45 -20 -20 34 c-22
36 -41 45 -41 18 0 -9 -7 -31 -16 -50 -12 -26 -15 -52 -12 -105 5 -69 5 -69
-15 -56 -37 24 -43 44 -22 67 18 20 18 21 -8 48 -15 16 -27 35 -27 44 0 28
-22 33 -42 8 -24 -29 -23 -81 2 -113 11 -14 20 -35 20 -46 0 -18 -5 -21 -32
-19 -29 3 -33 0 -33 -21 0 -13 9 -29 20 -35 93 -52 126 -89 91 -102 -17 -7
-86 21 -86 35 0 6 -18 22 -40 36 -22 14 -48 42 -59 63 -11 21 -54 66 -96 102
-43 35 -83 77 -90 94 -7 17 -23 83 -35 146 -11 63 -28 141 -36 172 -7 32 -14
91 -14 132 0 78 18 117 64 137 11 5 29 14 38 21 21 15 64 -5 71 -32 4 -15 15
-17 68 -16 58 1 64 3 67 23 4 25 -14 63 -29 63 -5 0 -15 -13 -20 -29 -14 -40
-37 -47 -49 -15 -6 14 -10 29 -10 34 0 5 -17 23 -37 39 -21 17 -47 44 -58 61
-26 41 -84 78 -95 61 -5 -9 -9 -4 -12 13 -3 14 -2 26 1 26 3 0 7 33 7 73 3
127 24 227 90 425 61 182 106 289 154 366 11 19 27 56 35 83 8 28 23 58 34 67
11 10 29 43 42 74 12 31 27 63 33 71 8 11 8 13 -1 7 -23 -13 -14 9 37 89 28
44 50 88 50 100 1 11 11 36 23 56 12 20 35 59 51 87 17 27 40 56 52 63 27 17
128 146 156 200 11 22 41 56 65 77 75 62 172 162 189 193 8 17 25 41 37 55 19
22 27 25 68 19 43 -6 48 -4 82 29 32 30 42 35 84 33 26 0 103 0 170 2 67 2
126 0 132 -4 6 -3 11 -1 11 5 0 6 5 8 12 4 22 -14 77 -4 166 30 111 42 203 68
362 100 109 22 182 31 400 50 65 6 268 -2 390 -15z m-5288 -114 c27 -11 37
-22 42 -46 11 -56 7 -68 -31 -92 -36 -23 -40 -23 -70 -9 -39 19 -62 66 -45 93
7 10 12 25 12 32 0 7 12 18 28 24 15 6 28 11 28 12 1 1 17 -6 36 -14z m14932
-29 c36 -27 76 -77 80 -99 2 -16 25 -54 26 -43 0 5 6 3 14 -3 12 -10 15 -6 21
18 4 19 11 28 19 25 17 -7 27 21 20 54 -4 22 -2 21 12 -8 20 -42 27 -193 12
-265 -6 -27 -13 -70 -17 -95 -8 -53 -35 -92 -98 -145 -38 -32 -56 -39 -100
-43 -92 -8 -139 12 -219 92 -85 86 -110 136 -119 239 -6 64 -4 76 7 72 10 -4
19 7 28 37 30 93 80 159 105 138 7 -6 15 -7 17 -3 1 4 21 20 43 35 49 34 99
32 149 -6z m2666 -231 c-5 -33 -10 -79 -10 -103 0 -43 0 -44 -31 -37 -51 11
-171 6 -229 -10 -30 -8 -58 -15 -62 -15 -17 0 -5 49 30 120 36 73 38 75 87 88
62 15 207 30 217 22 4 -3 3 -33 -2 -65z m430 -245 c-6 -69 -20 -183 -31 -253
-16 -110 -24 -138 -56 -195 l-38 -67 -7 87 c-4 59 -17 119 -41 189 -32 93 -34
106 -22 129 21 38 145 307 145 314 0 3 12 31 28 63 l27 58 3 -100 c2 -55 -2
-156 -8 -225z m-5440 228 c0 -7 -9 -65 -20 -128 -11 -63 -27 -171 -35 -240 -9
-69 -23 -160 -31 -204 -7 -43 -14 -104 -14 -135 0 -80 -11 -93 -47 -52 -184
215 -188 365 -13 601 64 88 138 170 152 170 4 0 8 -6 8 -12z m-3139 -125 c16
-42 10 -61 -27 -89 -34 -27 -36 -27 -69 -11 -21 10 -37 26 -41 42 -16 64 54
130 104 97 13 -8 28 -26 33 -39z m2274 -357 c8 -19 19 -65 24 -103 5 -37 17
-117 25 -178 9 -60 20 -182 26 -270 7 -103 18 -182 30 -224 17 -52 20 -92 20
-230 0 -219 -13 -320 -62 -471 -22 -69 -45 -141 -50 -160 -27 -86 -69 -161
-129 -226 -182 -200 -265 -270 -436 -371 -127 -76 -410 -153 -558 -153 -44 0
-140 30 -182 58 -36 22 -28 52 35 132 31 40 107 137 167 214 131 167 214 289
365 537 161 263 230 406 374 764 20 50 47 110 61 135 50 90 128 258 175 380
88 226 89 228 115 166z m5624 -133 c-1 -77 -26 -259 -38 -281 -17 -32 -70 -62
-107 -62 -38 0 -107 48 -134 93 -37 59 -43 101 -23 164 l18 56 7 -44 c24 -142
86 -186 164 -116 42 36 67 86 84 170 13 64 30 76 29 20z m-10752 -73 c18 -21
44 -41 57 -44 15 -4 26 -16 31 -33 3 -15 26 -57 51 -93 24 -36 44 -71 44 -78
0 -20 -19 -13 -36 13 -11 16 -26 25 -43 25 -33 0 -51 17 -51 47 0 15 -22 48
-60 88 -56 60 -73 98 -54 118 9 9 21 0 61 -43z m17 -278 c14 -21 26 -46 26
-57 0 -10 7 -27 17 -37 17 -19 17 -19 -18 -181 -8 -35 -8 -51 1 -62 10 -12 7
-15 -15 -21 -14 -3 -29 -3 -33 1 -4 4 -7 49 -7 100 0 98 -8 122 -30 91 -8 -10
-18 -15 -24 -11 -22 13 -10 36 25 51 l36 15 -4 75 c-2 41 -3 74 -2 74 1 0 13
-17 28 -38z m-1106 -258 c25 -11 32 -18 22 -22 -23 -8 -30 -23 -30 -69 0 -44
17 -63 58 -63 19 0 70 -46 60 -55 -10 -11 -76 20 -133 63 -33 24 -70 49 -82
55 -13 6 -23 13 -23 17 0 3 10 16 23 27 12 11 30 30 39 42 21 25 19 25 66 5z
m722 -38 c0 -13 2 -30 5 -38 3 -7 -11 -37 -30 -66 -22 -35 -35 -66 -35 -87 0
-41 -24 -67 -58 -63 -44 5 -49 31 -14 75 20 26 29 47 26 60 -3 11 1 25 10 32
9 8 16 24 16 36 0 30 37 75 61 75 13 0 19 -7 19 -24z m380 -414 c-7 -37 -19
-80 -27 -95 -23 -47 -4 -45 36 2 22 26 41 40 44 33 4 -5 -4 -24 -19 -41 -17
-20 -23 -37 -19 -50 3 -11 0 -29 -6 -39 -10 -16 -10 -25 4 -46 24 -36 22 -39
-26 -32 -57 9 -107 -13 -164 -70 -25 -24 -54 -44 -66 -44 -20 0 -19 1 6 28 15
15 27 37 27 48 0 11 12 31 26 45 20 18 24 30 20 52 -5 27 20 67 43 67 16 0 23
38 11 60 -6 11 -20 20 -30 20 -24 0 -26 13 -5 30 10 8 14 27 13 53 -3 34 1 42
16 45 12 3 26 -5 37 -19 15 -20 19 -21 33 -10 9 7 16 19 16 25 0 7 5 17 12 24
23 23 31 -15 18 -86z m-8260 11 l58 -46 -32 -32 c-48 -48 -78 -57 -122 -39
l-37 15 6 52 c5 39 13 56 34 74 16 12 30 22 32 23 2 0 29 -21 61 -47z m8437
-483 c3 -10 14 -22 24 -25 49 -16 5 -83 -81 -123 -31 -15 -51 -33 -65 -59 -11
-21 -35 -53 -54 -71 -19 -17 -49 -58 -65 -89 -31 -57 -59 -84 -73 -70 -4 5 6
19 23 32 28 22 30 26 28 94 -2 66 0 74 30 112 36 44 82 79 107 79 20 0 48 32
79 93 27 51 39 58 47 27z m-1709 -87 c-2 -14 -14 -18 -48 -19 -88 -1 -106 -32
-79 -139 11 -44 6 -95 -10 -95 -4 0 -21 17 -38 38 -31 38 -31 39 -18 95 16 68
47 115 83 123 15 3 32 7 37 9 6 2 25 4 43 4 27 1 33 -3 30 -16z m1952 -56
c-21 -28 -22 -37 -17 -118 4 -49 5 -89 2 -89 -2 0 -14 18 -25 40 -13 26 -33
46 -58 58 -23 11 -38 25 -40 39 -2 12 -10 27 -18 33 -16 14 -19 40 -4 40 6 0
21 -6 33 -14 12 -8 32 -17 44 -20 20 -7 21 -4 16 28 -5 31 -3 36 13 36 11 1
30 7 44 15 22 12 25 12 28 -2 2 -8 -6 -29 -18 -46z m6729 -392 c78 -208 212
-447 236 -423 4 3 -7 53 -24 110 -31 109 -77 325 -88 417 -6 50 -5 53 13 43
10 -6 33 -25 49 -42 45 -48 209 -173 405 -308 96 -67 216 -150 265 -185 50
-36 119 -82 155 -104 36 -22 112 -70 170 -106 58 -37 161 -96 231 -131 69 -35
130 -70 136 -78 13 -17 0 -65 -30 -101 l-22 -29 -38 36 c-45 42 -66 44 -127
11 l-45 -23 -46 49 c-41 45 -49 49 -91 49 -31 0 -54 -7 -72 -21 l-27 -21 -37
40 c-44 47 -72 57 -152 49 -51 -4 -61 -2 -77 16 -28 32 -105 77 -130 77 -13 0
-40 -7 -61 -16 -36 -15 -38 -15 -59 10 -34 40 -134 106 -160 106 -13 0 -35 -8
-50 -17 -25 -17 -26 -17 -62 24 -47 54 -114 89 -144 76 -19 -9 -31 -1 -94 61
l-71 71 -25 155 c-37 228 -57 383 -63 495 l-5 100 49 -140 c27 -77 68 -189 91
-250z m-8125 -79 c9 -37 16 -91 16 -120 0 -60 6 -67 70 -89 43 -14 45 -17 48
-57 2 -24 -2 -48 -10 -57 -11 -14 -14 -12 -24 13 -11 26 -12 23 -8 -31 2 -33
7 -72 10 -87 8 -37 -16 -86 -62 -122 -30 -23 -35 -25 -31 -10 14 50 17 115 7
135 l-12 21 -23 -22 c-19 -18 -31 -21 -57 -16 -18 3 -39 7 -45 8 -7 1 -13 8
-13 16 0 16 41 92 72 131 20 26 24 66 8 76 -16 10 -12 82 5 99 17 17 20 64 10
166 -5 61 -5 63 9 39 8 -14 22 -56 30 -93z m-487 -374 c-10 -10 -17 -24 -17
-30 0 -6 -13 -26 -29 -44 -18 -21 -31 -50 -35 -78 l-7 -45 23 39 c29 49 46 56
50 19 3 -27 5 -28 48 -25 37 3 50 9 73 38 36 42 55 43 95 1 30 -31 31 -33 19
-74 -7 -23 -16 -45 -19 -49 -11 -11 -38 16 -38 38 0 14 -5 18 -16 14 -9 -3
-19 -6 -24 -6 -5 0 -16 -7 -24 -15 -8 -9 -32 -22 -53 -29 -25 -8 -42 -23 -53
-44 -8 -17 -17 -32 -20 -32 -3 0 -27 20 -54 45 -27 25 -58 45 -68 45 -24 0
-23 15 2 40 21 21 26 55 10 65 -5 3 -10 19 -10 34 0 16 -7 34 -15 41 -19 16
-20 40 -1 40 7 0 19 -7 26 -15 18 -21 38 -18 95 15 59 35 63 36 42 12z m6713
-278 c104 -22 398 -115 496 -157 44 -19 118 -58 162 -86 45 -28 85 -51 88 -51
16 0 205 -138 258 -189 l60 -56 -58 65 c-55 62 -159 147 -225 182 -71 39 -24
53 114 35 58 -7 121 -10 150 -5 49 7 438 28 442 24 1 -1 9 -107 18 -236 8
-129 20 -268 25 -308 12 -87 13 -152 2 -152 -4 0 -28 15 -54 33 -25 17 -74 52
-109 76 -35 24 -85 64 -111 89 -27 26 -48 41 -48 35 0 -19 241 -217 307 -251
12 -7 24 -20 27 -29 5 -17 21 -126 81 -533 13 -96 36 -245 50 -330 14 -85 34
-216 45 -290 11 -74 29 -184 40 -245 11 -60 20 -113 20 -117 0 -4 -27 -23 -61
-44 -68 -41 -194 -142 -312 -248 -77 -71 -191 -197 -298 -331 -59 -74 -244
-356 -289 -440 -15 -27 -51 -93 -80 -145 -67 -121 -103 -200 -146 -323 -31
-92 -71 -161 -165 -289 -114 -156 -172 -240 -264 -383 -144 -221 -136 -211
-148 -190 -5 10 -18 48 -27 84 -10 36 -27 91 -38 121 -59 164 -101 295 -121
375 -13 50 -29 113 -38 142 -8 29 -21 80 -28 115 -7 35 -29 137 -49 228 -19
91 -38 190 -41 220 -9 79 -41 304 -76 535 -31 205 -45 345 -56 566 l-6 126 74
10 c88 12 200 1 238 -23 37 -24 127 -99 190 -158 82 -78 43 -21 -48 69 -45 44
-81 85 -81 92 0 20 60 16 235 -17 229 -44 247 -44 100 -5 -277 74 -550 95
-743 55 -180 -36 -362 -110 -751 -302 -64 -31 -117 -55 -119 -53 -6 6 49 89
140 212 111 150 133 198 184 408 25 103 31 366 10 472 -18 95 -36 134 -116
253 -112 166 -287 342 -410 412 -54 31 -203 65 -359 81 -118 13 -148 28 -94
47 97 36 252 131 422 258 417 311 658 440 990 528 189 51 462 68 601 38z
m-7152 -7 c34 1 70 1 80 1 9 0 43 1 75 1 l58 0 -48 -35 c-26 -19 -57 -34 -68
-34 -11 0 -29 -6 -40 -14 -38 -27 -166 8 -182 50 -8 23 17 47 41 38 12 -4 49
-7 84 -7z m961 -76 c25 -16 -55 -98 -113 -116 -89 -27 -132 -14 -124 37 3 24
15 26 130 28 20 1 32 9 43 30 16 30 38 37 64 21z m-2340 -73 c13 -10 34 -18
48 -18 32 0 89 -25 130 -56 26 -20 31 -29 23 -39 -13 -16 3 -30 25 -21 7 2 34
-14 58 -37 37 -34 44 -47 40 -68 -11 -57 90 -92 216 -77 19 2 26 -3 31 -22 5
-22 11 -25 55 -26 31 0 62 -7 80 -19 74 -46 154 -109 149 -117 -10 -16 -76 -8
-141 18 l-65 26 -22 -21 c-30 -28 -38 -27 -97 14 -28 19 -57 35 -64 35 -7 0
-32 9 -56 20 -24 11 -59 20 -77 20 -38 0 -66 13 -102 45 -14 12 -41 28 -60 34
-51 16 -144 115 -159 169 -9 32 -21 48 -51 67 -31 20 -40 32 -40 53 0 52 28
59 79 20z m10287 -140 c41 -32 44 -37 44 -93 1 -98 40 -132 134 -114 l56 10
60 -51 c41 -34 70 -50 89 -50 48 0 85 -20 113 -60 33 -47 103 -100 132 -100
12 0 30 7 40 15 29 22 40 19 97 -22 57 -40 132 -54 187 -35 26 9 33 7 54 -15
31 -33 117 -83 145 -83 13 0 41 7 63 16 37 15 41 15 72 -4 18 -11 52 -26 75
-32 37 -11 46 -11 68 4 17 11 30 14 38 8 7 -5 29 -15 50 -21 46 -15 53 -28 62
-116 6 -64 27 -125 41 -125 3 0 3 32 -1 70 -4 44 -3 70 3 70 5 0 109 -98 229
-217 206 -204 332 -351 508 -587 87 -118 99 -136 89 -145 -5 -5 -106 18 -224
51 -214 58 -215 59 -292 49 -42 -6 -91 -16 -109 -24 -30 -12 -18 -13 111 -13
132 1 152 -1 225 -26 44 -15 114 -34 155 -43 41 -8 105 -27 141 -41 78 -29 98
-52 252 -284 53 -80 154 -226 226 -325 72 -99 160 -221 196 -271 36 -50 91
-119 122 -153 30 -34 54 -63 52 -65 -2 -2 -24 -12 -49 -23 -60 -27 -398 -280
-431 -324 l-26 -34 -37 17 c-46 22 -58 17 -96 -42 -41 -64 -109 -92 -174 -70
-32 10 -42 25 -111 156 -70 133 -175 291 -278 419 -57 71 -200 215 -212 215
-5 -1 11 -20 36 -43 134 -124 402 -527 465 -701 l14 -39 -37 6 c-31 5 -52 21
-112 84 -40 43 -111 117 -157 165 -73 77 -83 93 -90 134 -8 54 -40 94 -76 94
-13 0 -105 55 -208 124 -454 304 -801 465 -1095 510 -60 9 -120 19 -132 21
-23 5 -58 84 -113 255 -40 124 -139 558 -155 675 -3 28 -15 95 -25 150 -23
121 -30 195 -20 195 4 0 27 -11 51 -24 24 -13 60 -27 79 -30 33 -7 34 -6 16 9
-11 8 -52 32 -92 52 l-72 37 -31 131 c-17 71 -37 168 -46 215 -9 47 -22 114
-30 150 -29 140 -44 216 -47 245 -2 24 -9 30 -34 36 -45 9 -54 17 -54 50 0 24
4 29 24 29 13 0 36 -10 52 -22z m-8726 -19 c24 -20 24 -21 5 -35 -10 -8 -25
-14 -32 -14 -7 0 -19 -13 -28 -30 -22 -42 -78 -57 -113 -30 -13 11 -36 20 -49
20 -13 0 -52 10 -87 22 -34 12 -70 19 -79 15 -23 -9 -22 -34 1 -41 13 -4 22
-22 28 -53 7 -39 15 -51 44 -67 19 -11 57 -24 85 -28 105 -16 125 -21 135 -33
9 -11 5 -18 -15 -31 -27 -17 -44 -16 -159 12 -26 6 -34 2 -56 -25 -18 -21 -39
-34 -63 -38 -46 -7 -87 3 -87 22 0 17 46 39 60 30 5 -3 17 6 27 21 16 25 16
27 -2 40 -11 8 -35 14 -55 14 -53 -1 -92 11 -112 34 -20 25 -23 55 -5 60 52
15 107 39 107 47 0 12 -62 39 -73 32 -4 -3 -19 -2 -33 1 -19 5 -25 12 -22 29
4 25 46 44 74 32 11 -4 39 -7 64 -6 25 1 65 -5 89 -14 27 -9 47 -12 51 -6 3 6
35 10 70 9 70 0 175 14 186 25 11 10 16 8 44 -14z m9359 -304 c61 -24 160 -61
221 -81 86 -28 110 -40 108 -53 -2 -12 -17 -17 -58 -19 -48 -2 -62 2 -112 33
-32 20 -58 43 -58 51 0 21 -21 17 -62 -11 -20 -14 -42 -25 -48 -25 -26 0 -130
115 -130 145 0 12 36 2 139 -40z m-7239 -110 c0 -17 -40 -78 -96 -145 -60 -73
-129 -130 -157 -130 -7 0 -23 -7 -35 -16 -40 -28 -35 -8 8 32 22 21 55 67 71
102 21 42 41 70 61 81 16 9 43 25 60 36 69 44 88 53 88 40z m-2043 -25 c3 -11
20 -24 39 -30 18 -6 43 -23 54 -37 18 -23 23 -25 46 -15 33 16 84 15 84 0 0
-7 3 -24 7 -37 l6 -24 -78 6 c-70 6 -86 12 -140 48 -45 30 -67 39 -86 35 -29
-5 -69 17 -56 31 11 10 88 42 105 42 8 1 16 -8 19 -19z m-542 -555 c90 -13
103 -18 176 -67 44 -29 79 -60 79 -69 0 -31 34 -48 122 -59 l87 -10 52 32 c67
41 162 52 184 22 17 -24 12 -31 -31 -49 -19 -8 -45 -25 -58 -39 -13 -15 -27
-26 -31 -26 -16 0 -55 -52 -55 -74 0 -32 -19 -46 -64 -46 -66 0 -112 18 -145
55 -23 26 -43 38 -83 46 -47 11 -50 13 -33 25 10 8 23 14 28 14 4 0 7 12 5 28
-2 23 -8 27 -33 27 -23 0 -32 -6 -39 -28 -8 -22 -7 -30 4 -37 29 -19 -8 -12
-311 53 -84 19 -98 28 -141 96 -56 88 -56 94 -6 85 62 -11 91 -8 129 15 41 25
40 25 164 6z m1343 -39 c15 -8 36 -24 46 -35 l20 -22 -100 2 c-97 1 -100 1
-158 -35 -54 -33 -86 -42 -124 -37 -8 1 -20 -6 -27 -16 -10 -13 -17 -15 -25
-7 -12 12 -3 44 12 44 5 0 6 5 3 10 -7 11 25 26 77 34 46 7 69 16 90 34 19 16
98 40 136 41 13 1 35 -5 50 -13z m10532 -456 c462 -216 568 -268 628 -311 58
-41 75 -60 129 -151 64 -108 72 -126 153 -340 55 -145 92 -268 114 -383 8 -44
25 -124 36 -179 12 -54 19 -101 16 -103 -11 -12 -92 66 -164 157 -95 120 -197
242 -280 331 -48 53 -61 74 -58 91 6 26 26 230 26 261 0 11 -2 18 -4 16 -7 -7
-34 -144 -42 -211 -3 -32 -10 -58 -15 -58 -12 0 -123 131 -228 268 -47 62
-101 132 -119 155 -18 23 -43 58 -56 77 -13 19 -44 60 -70 90 -26 30 -56 71
-66 91 -11 20 -52 81 -93 136 -41 55 -80 110 -87 122 -11 21 -10 22 12 16 12
-4 88 -37 168 -75z m-1785 -1034 c173 -53 237 -79 408 -163 242 -119 377 -204
377 -239 0 -6 -20 -27 -44 -45 -24 -19 -77 -71 -118 -116 -90 -98 -157 -221
-214 -393 -34 -102 -37 -125 -36 -204 2 -100 23 -159 57 -164 13 -2 48 20 98
62 42 35 114 83 160 106 45 24 89 48 97 55 8 7 31 17 50 24 44 14 196 41 233
41 46 0 140 -54 171 -98 15 -22 36 -48 46 -57 18 -16 21 -15 62 24 58 53 147
94 252 116 100 21 137 16 200 -28 83 -56 86 -57 125 -41 20 8 48 30 63 49 32
38 111 62 169 51 61 -11 153 -62 192 -105 38 -42 38 -42 91 -36 64 8 98 -7
196 -85 68 -54 194 -212 226 -281 20 -45 47 -49 53 -9 5 34 -17 229 -36 315
-43 204 -176 474 -320 653 -19 23 -33 49 -30 56 16 42 207 11 333 -52 67 -34
216 -148 247 -190 11 -15 41 -49 67 -77 26 -27 81 -99 122 -160 41 -60 100
-146 130 -190 31 -44 78 -125 106 -180 43 -85 53 -118 71 -222 37 -215 26
-339 -43 -464 -19 -35 -50 -102 -70 -149 -44 -108 -151 -284 -227 -374 -130
-154 -472 -359 -651 -390 -149 -26 -194 -28 -289 -16 -292 35 -687 226 -854
412 -81 90 -165 225 -165 265 0 10 30 60 66 112 64 92 144 241 185 344 37 92
59 224 65 387 5 136 3 163 -15 220 -22 74 -24 59 -11 -84 31 -349 -84 -658
-362 -973 -117 -133 -277 -249 -478 -347 -198 -97 -323 -132 -615 -172 -214
-29 -460 -12 -692 49 -111 30 -155 48 -290 120 -271 144 -379 222 -553 397
-113 113 -245 290 -303 405 -93 186 -183 426 -212 563 -25 120 -21 148 29 228
131 210 368 504 528 653 170 158 355 266 603 351 223 77 241 80 465 77 181 -3
201 -5 285 -31z"/>
<path d="M18215 8242 c-6 -4 -16 -25 -22 -47 -7 -22 -23 -72 -37 -111 -28 -81
-43 -176 -50 -319 -5 -123 6 -76 27 110 16 138 54 276 87 317 22 28 73 43 99
28 10 -5 33 -37 51 -72 40 -77 58 -98 82 -98 10 0 56 36 102 80 79 76 86 80
128 80 106 0 296 -147 417 -324 61 -88 131 -234 131 -273 0 -25 -21 -76 -69
-168 -108 -209 -148 -265 -225 -316 -96 -63 -87 -76 14 -21 65 35 72 43 146
161 92 144 163 285 241 481 68 170 87 256 64 298 -6 11 -36 34 -68 52 -111 63
-223 91 -483 120 -218 24 -271 25 -264 5 3 -8 -3 -30 -15 -48 -26 -43 -114
-117 -128 -109 -16 11 -73 129 -75 157 -2 24 -5 25 -73 25 -38 0 -75 -4 -80
-8z"/>
<path d="M7025 9963 c-76 -17 -100 -28 -135 -61 -47 -43 -46 -63 2 -88 33 -17
58 -13 58 10 0 9 -12 16 -32 18 -75 7 -17 53 95 74 l71 14 46 -30 c44 -28 100
-40 100 -22 0 5 -16 27 -36 50 -34 41 -38 42 -92 41 -31 -1 -66 -3 -77 -6z"/>
<path d="M5667 8673 c-20 -19 25 -85 92 -134 23 -16 41 -33 41 -38 0 -6 -21
-13 -46 -17 -38 -5 -51 -3 -75 15 l-29 22 -11 -25 c-14 -30 -38 -41 -45 -21
-4 8 -12 15 -20 15 -17 0 -17 -5 -3 -31 7 -15 7 -45 -1 -107 -9 -74 -9 -93 4
-124 9 -21 16 -50 16 -66 0 -41 20 -92 35 -92 8 0 22 -11 33 -24 12 -16 26
-23 38 -20 10 2 34 6 53 7 19 1 36 7 38 13 2 6 -10 28 -27 49 -36 46 -38 59
-5 51 13 -3 56 -1 95 5 51 9 77 9 93 1 33 -16 67 -21 64 -10 -1 5 22 24 52 41
49 29 56 38 67 82 7 27 12 50 11 51 -1 1 -19 -1 -39 -4 -31 -3 -46 -14 -80
-54 l-42 -50 -49 5 c-32 4 -58 2 -76 -7 -27 -14 -109 -15 -148 -1 -24 8 -30
29 -13 40 6 4 -2 21 -21 42 -26 30 -29 38 -17 49 10 11 22 11 50 3 32 -8 39
-16 48 -49 6 -22 17 -40 24 -40 24 0 26 12 6 38 -13 16 -18 33 -14 48 5 19 2
24 -14 24 -27 0 -45 23 -30 38 7 7 19 12 28 12 8 0 25 7 38 15 16 12 41 15 94
13 65 -3 73 -5 73 -23 0 -17 -6 -20 -37 -18 -33 2 -39 -1 -44 -22 -8 -31 2
-74 19 -81 7 -2 44 25 82 61 39 36 73 65 78 65 15 0 97 83 97 98 0 11 -9 13
-41 9 -30 -4 -52 -16 -80 -43 -22 -21 -40 -34 -40 -29 -1 6 -2 17 -3 25 -1 17
-73 33 -124 27 -30 -3 -33 0 -43 36 -8 32 -13 36 -24 27 -22 -18 -44 -5 -61
37 -24 57 -50 83 -67 66z"/>
<path d="M6545 8614 c-14 -15 -25 -33 -25 -41 0 -14 -152 -167 -211 -213 -18
-13 -27 -26 -20 -28 11 -4 77 26 113 51 24 16 33 2 20 -28 -11 -23 -9 -27 13
-37 30 -14 32 -24 5 -31 -14 -4 -20 -14 -20 -34 0 -15 -3 -38 -6 -49 -5 -17 0
-24 24 -32 38 -13 75 -49 66 -64 -4 -6 -10 -28 -14 -49 -5 -28 -3 -39 6 -43 8
-3 14 -14 14 -25 0 -23 -58 -46 -98 -38 -34 7 -52 -1 -52 -23 0 -26 -19 -30
-80 -16 -44 10 -55 17 -62 38 -7 20 -17 27 -50 31 -28 4 -48 1 -62 -9 -24 -16
-62 -19 -71 -4 -4 6 3 26 15 45 12 19 17 35 12 35 -6 0 -20 -16 -32 -36 -13
-19 -34 -40 -47 -45 -21 -8 -24 -14 -18 -37 4 -20 -1 -41 -19 -73 -14 -24 -26
-54 -26 -66 0 -13 -4 -23 -9 -23 -12 0 -21 36 -21 87 0 27 14 70 40 128 22 48
40 94 40 102 0 24 -21 3 -41 -41 -10 -23 -33 -58 -51 -77 -18 -19 -43 -48 -54
-64 -29 -40 -41 -25 -25 33 26 95 27 90 -5 61 -16 -15 -44 -34 -61 -43 -20
-10 -33 -24 -33 -35 0 -10 -12 -27 -27 -36 -54 -34 -83 -68 -83 -96 0 -15 -5
-40 -10 -55 -15 -38 1 -52 35 -30 15 10 29 15 32 13 3 -3 -2 -30 -11 -60 -9
-30 -16 -67 -16 -82 0 -24 3 -26 24 -21 15 4 31 -1 46 -14 32 -27 47 -25 65
10 22 42 49 39 79 -9 30 -48 55 -57 95 -37 57 30 89 22 142 -36 26 -29 50 -60
53 -71 6 -23 -16 -32 -43 -18 -11 6 -39 11 -63 10 -77 -3 -100 8 -161 76 -34
38 -66 65 -78 65 -27 0 -42 -43 -30 -84 6 -17 19 -71 30 -120 12 -49 26 -95
32 -102 14 -17 41 -18 57 -2 9 9 16 3 28 -27 8 -22 32 -52 51 -68 34 -25 37
-26 55 -10 22 20 21 21 41 -44 25 -77 23 -83 -15 -72 -18 5 -35 9 -38 9 -3 0
17 -20 45 -45 36 -33 57 -45 80 -45 17 0 35 -4 40 -9 6 -4 24 -13 42 -19 l31
-10 1 46 c2 66 15 127 26 127 5 0 11 -9 13 -20 6 -28 21 -45 43 -45 27 0 33
18 19 60 -11 33 -10 44 2 72 9 18 21 50 27 70 7 20 19 42 27 48 20 17 18 49
-6 88 -23 37 -35 40 -50 12 -15 -27 -23 -26 -91 16 -56 35 -59 39 -59 76 0 34
3 39 18 33 44 -18 52 -17 62 10 5 14 10 51 10 82 l0 55 36 -6 c19 -4 50 -16
67 -27 18 -10 44 -19 58 -19 20 0 28 -6 33 -25 4 -15 16 -27 30 -31 14 -3 32
-14 42 -25 26 -29 44 -24 44 14 0 36 28 97 62 140 21 26 22 28 5 57 -17 28
-17 29 2 40 11 5 31 10 44 10 25 0 57 27 57 49 0 6 16 21 35 33 39 22 105 108
83 108 -7 0 -44 -14 -83 -30 -38 -17 -73 -30 -77 -30 -5 0 -2 14 7 30 9 18 11
30 5 30 -6 0 -24 10 -41 22 -25 19 -33 20 -49 10 -46 -28 -98 -3 -73 36 8 13
37 15 186 15 98 0 180 3 183 8 2 4 17 4 31 -2 45 -17 68 -4 91 50 17 43 18 52
6 62 -14 11 -20 39 -8 39 3 0 13 -4 23 -10 14 -7 26 -1 56 30 36 37 36 39 17
49 -11 6 -32 11 -46 11 -14 0 -29 8 -35 17 -7 13 -24 18 -68 19 -116 3 -147
14 -230 84 -7 6 -13 24 -13 40 0 24 5 29 28 32 25 3 27 6 29 53 1 28 -3 63 -9
78 -15 39 -42 31 -48 -13 -3 -19 -13 -50 -23 -68 -17 -32 -20 -33 -40 -19 -12
9 -20 21 -18 29 14 50 13 55 -21 64 -23 6 -38 19 -48 41 -18 40 -24 40 -55 7z
m-318 -730 c10 -30 -159 -94 -249 -94 -50 0 -49 17 5 61 39 34 46 36 97 32 30
-3 71 0 90 5 39 11 52 10 57 -4z"/>
<path d="M7502 8515 c-12 -20 -22 -42 -22 -49 0 -26 -52 -126 -71 -136 -11 -6
-45 -8 -82 -4 -63 6 -64 6 -88 -26 -13 -17 -34 -43 -47 -57 -22 -24 -22 -26
-5 -39 35 -27 63 -10 41 25 -25 40 35 63 77 30 6 -4 30 -9 53 -10 32 -2 47 2
67 21 14 13 25 28 25 34 0 5 16 33 37 63 28 41 44 54 70 59 47 9 50 21 15 57
-16 18 -34 40 -39 50 -9 17 -12 15 -31 -18z"/>
<path d="M7520 7946 c-77 -41 -86 -44 -101 -36 -8 5 -21 5 -29 0 -11 -7 -11
-11 -1 -24 8 -9 22 -16 32 -16 25 0 35 -21 15 -32 -9 -5 -16 -22 -16 -40 0
-20 -11 -43 -31 -66 -26 -29 -30 -40 -25 -68 3 -19 9 -50 12 -69 11 -65 45
-56 79 20 25 58 103 125 172 148 32 10 40 19 55 61 9 28 15 52 12 55 -2 3 -7
-5 -11 -17 -3 -12 -12 -22 -21 -22 -9 0 -28 -12 -43 -26 l-27 -26 -16 23 c-16
26 -22 90 -11 127 9 26 -6 29 -45 8z"/>
<path d="M6246 6863 c8 -35 -10 -47 -50 -32 -19 7 -38 10 -42 7 -13 -14 27
-105 56 -127 33 -24 42 -48 13 -33 -30 16 -103 25 -103 13 0 -24 25 -62 45
-67 29 -7 71 11 85 36 15 28 35 25 60 -10 26 -37 43 -39 38 -5 -2 18 5 32 24
48 l28 22 -33 60 c-23 43 -43 66 -72 82 -48 27 -54 28 -49 6z"/>
<path d="M17614 10071 c-38 -23 -76 -98 -100 -193 -29 -120 2 -204 86 -229 33
-10 43 -9 72 8 54 31 80 91 86 197 5 110 -8 164 -49 205 -36 36 -52 38 -95 12z"/>
</g>
</svg>
